<svg xmlns="http://www.w3.org/2000/svg" xmlns:xlink="http://www.w3.org/1999/xlink" viewBox="0 0 85.59 20.34"><defs><clipPath id="a"><path d="M4.85,2.37a2.77,2.77,0,0,0-2.23.94A3.79,3.79,0,0,0,1.8,5.89a3.87,3.87,0,0,0,.79,2.6,2.78,2.78,0,0,0,2.24.91,7.91,7.91,0,0,0,2.05-.32V10a6.13,6.13,0,0,1-2.2.34A3.74,3.74,0,0,1,1.76,9.14a4.78,4.78,0,0,1-1-3.27,5.18,5.18,0,0,1,.5-2.32A3.53,3.53,0,0,1,2.66,2a4.3,4.3,0,0,1,2.2-.54A5.25,5.25,0,0,1,7.21,2l-.42.86A4.48,4.48,0,0,0,4.85,2.37Zm7.7,7.8-.19-.91h0a2.66,2.66,0,0,1-1,.81,2.78,2.78,0,0,1-1.19.22,2.14,2.14,0,0,1-1.5-.5,1.78,1.78,0,0,1-.54-1.4c0-1.29,1-2,3.11-2l1.09,0v-.4A1.65,1.65,0,0,0,12,4.81a1.36,1.36,0,0,0-1-.37,4.24,4.24,0,0,0-1.82.5l-.3-.75a4.78,4.78,0,0,1,1-.4A4.46,4.46,0,0,1,11,3.64a2.45,2.45,0,0,1,1.7.51,2.14,2.14,0,0,1,.55,1.64v4.38Zm-2.2-.69A2,2,0,0,0,11.78,9a1.85,1.85,0,0,0,.52-1.4V7l-1,0a3.65,3.65,0,0,0-1.68.36,1.11,1.11,0,0,0-.51,1,1,1,0,0,0,.32.8A1.33,1.33,0,0,0,10.35,9.48Zm7.91-5.84a2.39,2.39,0,0,1,2,.87A3.75,3.75,0,0,1,20.93,7a3.81,3.81,0,0,1-.71,2.46,2.39,2.39,0,0,1-2,.88,2.83,2.83,0,0,1-1.14-.23,2.17,2.17,0,0,1-.87-.72h-.07l-.21.83h-.69V1.05h1V3.27c0,.49,0,.94-.05,1.33h.05A2.3,2.3,0,0,1,18.26,3.64Zm-.14.82A1.69,1.69,0,0,0,16.69,5,3.16,3.16,0,0,0,16.25,7a3.22,3.22,0,0,0,.45,1.94,1.71,1.71,0,0,0,1.45.58,1.51,1.51,0,0,0,1.33-.65,3.31,3.31,0,0,0,.44-1.88,3.19,3.19,0,0,0-.44-1.87A1.54,1.54,0,0,0,18.12,4.46Zm7.44-.83a3.67,3.67,0,0,1,.77.07l-.14.9a3.13,3.13,0,0,0-.7-.08,1.69,1.69,0,0,0-1.33.63,2.3,2.3,0,0,0-.56,1.57v3.45h-1V3.75h.8l.11,1.19h.05a2.93,2.93,0,0,1,.86-1A1.94,1.94,0,0,1,25.56,3.63Zm5.92,6.54-.2-.91h0a2.66,2.66,0,0,1-1,.81,2.81,2.81,0,0,1-1.19.22,2.14,2.14,0,0,1-1.5-.5,1.78,1.78,0,0,1-.54-1.4c0-1.29,1-2,3.11-2l1.09,0v-.4a1.6,1.6,0,0,0-.33-1.11,1.33,1.33,0,0,0-1-.37,4.21,4.21,0,0,0-1.81.5l-.3-.75a4.59,4.59,0,0,1,1-.4,4.33,4.33,0,0,1,1.13-.15,2.43,2.43,0,0,1,1.7.51,2.14,2.14,0,0,1,.56,1.64v4.38Zm-2.2-.69A2,2,0,0,0,30.71,9a1.88,1.88,0,0,0,.51-1.4V7l-1,0a3.6,3.6,0,0,0-1.67.36,1.11,1.11,0,0,0-.51,1,1,1,0,0,0,.32.8A1.33,1.33,0,0,0,29.28,9.48Zm7.85-5.85a3.61,3.61,0,0,1,.77.07l-.14.9a3.13,3.13,0,0,0-.7-.08,1.71,1.71,0,0,0-1.33.63,2.3,2.3,0,0,0-.56,1.57v3.45h-1V3.75H35l.12,1.19h0A2.93,2.93,0,0,1,36,4,1.94,1.94,0,0,1,37.13,3.63Zm4.68,6.66a2.92,2.92,0,0,1-2.24-.87A3.36,3.36,0,0,1,38.74,7a3.74,3.74,0,0,1,.77-2.47,2.56,2.56,0,0,1,2.05-.91,2.44,2.44,0,0,1,1.91.79,3,3,0,0,1,.7,2.1v.61H39.75a2.55,2.55,0,0,0,.57,1.72,2,2,0,0,0,1.53.59,5.18,5.18,0,0,0,2-.44v.87a4.85,4.85,0,0,1-1,.32A5.69,5.69,0,0,1,41.81,10.29Zm-.26-5.85A1.56,1.56,0,0,0,40.32,5a2.32,2.32,0,0,0-.55,1.39h3.36a2.17,2.17,0,0,0-.41-1.41A1.45,1.45,0,0,0,41.55,4.44Zm9.47,5a4,4,0,0,0,.5,0l.38-.08v.74a2,2,0,0,1-.46.13,4,4,0,0,1-.56,0c-1.24,0-1.86-.66-1.86-2V4.5H48.1V4l.92-.4.41-1.37H50V3.75h1.87V4.5H50V8.28a1.25,1.25,0,0,0,.28.89A.93.93,0,0,0,51,9.48Zm6.56.69V6a1.68,1.68,0,0,0-.36-1.18,1.49,1.49,0,0,0-1.12-.38A1.83,1.83,0,0,0,54.62,5a2.78,2.78,0,0,0-.46,1.8v3.36h-1V1.05h1V3.81a6.25,6.25,0,0,1,0,.83h.06A2,2,0,0,1,55,3.91a2.6,2.6,0,0,1,1.21-.27A2.48,2.48,0,0,1,58,4.2,2.33,2.33,0,0,1,58.55,6v4.19Zm5.68.12A2.93,2.93,0,0,1,61,9.42,3.36,3.36,0,0,1,60.19,7,3.74,3.74,0,0,1,61,4.54a2.56,2.56,0,0,1,2-.91,2.44,2.44,0,0,1,1.91.79,3.05,3.05,0,0,1,.71,2.1v.61H61.2a2.55,2.55,0,0,0,.57,1.72,2,2,0,0,0,1.53.59,5.18,5.18,0,0,0,2-.44v.87a4.65,4.65,0,0,1-1,.32A5.69,5.69,0,0,1,63.26,10.29ZM63,4.44A1.56,1.56,0,0,0,61.77,5a2.25,2.25,0,0,0-.54,1.39h3.35a2.12,2.12,0,0,0-.41-1.41A1.45,1.45,0,0,0,63,4.44Zm12.47,5.73V6a1.73,1.73,0,0,0-.33-1.15,1.26,1.26,0,0,0-1-.38A1.64,1.64,0,0,0,72.78,5a2.47,2.47,0,0,0-.43,1.6v3.59h-1V6a1.79,1.79,0,0,0-.32-1.15,1.28,1.28,0,0,0-1-.38A1.6,1.6,0,0,0,68.68,5a3,3,0,0,0-.42,1.8v3.37h-1V3.75h.79l.16.88h0a1.86,1.86,0,0,1,.78-.74,2.4,2.4,0,0,1,1.12-.26,1.91,1.91,0,0,1,2,1.09h0a2.09,2.09,0,0,1,.84-.8,2.61,2.61,0,0,1,1.24-.29,2.19,2.19,0,0,1,1.63.56A2.5,2.5,0,0,1,76.44,6v4.19Zm5.69.12a3,3,0,0,1-2.25-.87A3.35,3.35,0,0,1,78.09,7a3.74,3.74,0,0,1,.76-2.47,2.58,2.58,0,0,1,2.06-.91,2.46,2.46,0,0,1,1.91.79,3,3,0,0,1,.7,2.1v.61H79.1a2.55,2.55,0,0,0,.57,1.72,2,2,0,0,0,1.52.59,5.11,5.11,0,0,0,2-.44v.87a4.58,4.58,0,0,1-1,.32A5.85,5.85,0,0,1,81.16,10.29ZM80.9,4.44A1.59,1.59,0,0,0,79.66,5a2.25,2.25,0,0,0-.54,1.39h3.36a2.17,2.17,0,0,0-.41-1.41A1.48,1.48,0,0,0,80.9,4.44Z" style="fill:none"/></clipPath><linearGradient id="b" x1="6.3" y1="31.24" x2="79.3" y2="-10.9" gradientUnits="userSpaceOnUse"><stop offset="0" stop-color="#009579"/><stop offset="1" stop-color="#6ac0b1"/></linearGradient></defs><path d="M36.05,13.62a1.48,1.48,0,0,1,1.22.51,2.31,2.31,0,0,1,.4,1.48,2.25,2.25,0,0,1-.43,1.48,1.46,1.46,0,0,1-1.21.52,1.64,1.64,0,0,1-.74-.17,1.33,1.33,0,0,1-.52-.48h0l-.1.58h-.22V12h.35v1.39c0,.2,0,.39,0,.57v.3h0a1.51,1.51,0,0,1,.53-.51A1.6,1.6,0,0,1,36.05,13.62Zm0,.32a1.13,1.13,0,0,0-1,.39,2.11,2.11,0,0,0-.3,1.28v.06a2,2,0,0,0,.31,1.25,1.15,1.15,0,0,0,1,.38,1.1,1.1,0,0,0,.95-.44,2.06,2.06,0,0,0,.32-1.26C37.3,14.49,36.88,13.94,36,13.94Z" style="fill:#1d1d1b"/><path d="M38.1,13.69h.36l.81,2.16c.25.67.41,1.11.47,1.34h0c.1-.3.26-.76.49-1.36l.81-2.14h.36L39.7,18.16a3.72,3.72,0,0,1-.35.74,1.11,1.11,0,0,1-.33.29,1.08,1.08,0,0,1-.46.09,1.5,1.5,0,0,1-.45-.07V18.9a1.56,1.56,0,0,0,.44.06.66.66,0,0,0,.32-.08.82.82,0,0,0,.25-.27,4.5,4.5,0,0,0,.26-.56l.19-.51Z" style="fill:#1d1d1b"/><path d="M48.76,17.54V15a1.27,1.27,0,0,0-.22-.83.84.84,0,0,0-.67-.25,1.13,1.13,0,0,0-.88.32,1.55,1.55,0,0,0-.28,1v2.25h-.36V14.91c0-.65-.3-1-.89-1a1,1,0,0,0-.88.35,1.79,1.79,0,0,0-.28,1.13v2.12H44V13.69h.29l.08.53h0a1,1,0,0,1,.45-.44,1.31,1.31,0,0,1,.65-.16,1.12,1.12,0,0,1,1.17.68h0a1.32,1.32,0,0,1,.51-.51,1.53,1.53,0,0,1,.72-.17,1.24,1.24,0,0,1,.94.33A1.54,1.54,0,0,1,49.11,15v2.52Z" style="fill:#1d1d1b"/><path d="M53.54,15.61a2.19,2.19,0,0,1-.46,1.47,1.57,1.57,0,0,1-1.26.53,1.62,1.62,0,0,1-.89-.24,1.64,1.64,0,0,1-.6-.7,2.71,2.71,0,0,1-.2-1.06,2.14,2.14,0,0,1,.46-1.47,1.74,1.74,0,0,1,2.49,0A2.15,2.15,0,0,1,53.54,15.61Zm-3,0a1.93,1.93,0,0,0,.35,1.24,1.32,1.32,0,0,0,2,0,2,2,0,0,0,.35-1.24,1.94,1.94,0,0,0-.35-1.23,1.34,1.34,0,0,0-2,0A2,2,0,0,0,50.5,15.61Z" style="fill:#1d1d1b"/><path d="M56,13.62a1.59,1.59,0,0,1,.72.15,1.42,1.42,0,0,1,.55.52h0c0-.3,0-.59,0-.87V12h.35v5.51H57.4L57.31,17h0a1.42,1.42,0,0,1-1.26.66,1.51,1.51,0,0,1-1.22-.49,2.2,2.2,0,0,1-.42-1.45,2.39,2.39,0,0,1,.42-1.52A1.43,1.43,0,0,1,56,13.62Zm0,.32a1.08,1.08,0,0,0-.95.44,2.18,2.18,0,0,0-.31,1.28c0,1.09.42,1.64,1.27,1.64a1.15,1.15,0,0,0,.95-.38,2,2,0,0,0,.31-1.25v-.06a2.13,2.13,0,0,0-.3-1.28A1.14,1.14,0,0,0,56,13.94Z" style="fill:#1d1d1b"/><path d="M59.22,13.69v2.49a1.2,1.2,0,0,0,.25.85,1,1,0,0,0,.75.26,1.31,1.31,0,0,0,1-.34,1.62,1.62,0,0,0,.33-1.13V13.69h.35v3.85h-.3L61.54,17h0a1.44,1.44,0,0,1-1.33.6c-.88,0-1.31-.47-1.31-1.4V13.69Z" style="fill:#1d1d1b"/><path d="M63.55,17.54h-.36V12h.36Z" style="fill:#1d1d1b"/><path d="M67.17,17.54l-.09-.61h0a1.9,1.9,0,0,1-.59.53,1.67,1.67,0,0,1-.73.15,1.26,1.26,0,0,1-.88-.29,1,1,0,0,1-.31-.8,1,1,0,0,1,.47-.88,2.67,2.67,0,0,1,1.35-.33l.74,0V15a1.3,1.3,0,0,0-.23-.83.86.86,0,0,0-.72-.28,2.37,2.37,0,0,0-1.1.3l-.14-.31a3,3,0,0,1,1.26-.3,1.26,1.26,0,0,1,1,.33,1.51,1.51,0,0,1,.31,1v2.56Zm-1.42-.25A1.22,1.22,0,0,0,67.08,16v-.38l-.67,0a2.67,2.67,0,0,0-1.16.25.74.74,0,0,0-.34.67.7.7,0,0,0,.22.56A.86.86,0,0,0,65.75,17.29Z" style="fill:#1d1d1b"/><path d="M70.19,13.62a2.4,2.4,0,0,1,.52.05l-.06.33a2.07,2.07,0,0,0-.5-.06,1,1,0,0,0-.81.42A1.71,1.71,0,0,0,69,15.42v2.12h-.35V13.69H69l0,.7h0a1.57,1.57,0,0,1,.51-.6A1.15,1.15,0,0,1,70.19,13.62Z" style="fill:#1d1d1b"/><path d="M73,17.61a1.63,1.63,0,0,1-1.29-.52,2.11,2.11,0,0,1-.47-1.45,2.16,2.16,0,0,1,.49-1.49,1.71,1.71,0,0,1,1.33-.53,2.75,2.75,0,0,1,1,.17L74,14.1a2.83,2.83,0,0,0-.87-.16,1.31,1.31,0,0,0-1.07.43,1.89,1.89,0,0,0-.37,1.26A1.82,1.82,0,0,0,72,16.85a1.22,1.22,0,0,0,1,.44,2.58,2.58,0,0,0,1-.18v.32A2.21,2.21,0,0,1,73,17.61Z" style="fill:#1d1d1b"/><path d="M79.75,17.54V15a1.27,1.27,0,0,0-.22-.83.84.84,0,0,0-.67-.25,1.13,1.13,0,0,0-.88.32,1.55,1.55,0,0,0-.28,1v2.25h-.36V14.91c0-.65-.3-1-.89-1a1,1,0,0,0-.88.35,1.79,1.79,0,0,0-.28,1.13v2.12h-.35V13.69h.29l.08.53h0a1,1,0,0,1,.45-.44,1.31,1.31,0,0,1,.65-.16,1.11,1.11,0,0,1,1.17.68h0a1.32,1.32,0,0,1,.51-.51,1.53,1.53,0,0,1,.72-.17,1.24,1.24,0,0,1,.94.33A1.54,1.54,0,0,1,80.1,15v2.52Z" style="fill:#1d1d1b"/><path d="M83.73,16.54a.91.91,0,0,1-.39.79,1.91,1.91,0,0,1-1.12.28A2.62,2.62,0,0,1,81,17.37V17a2.71,2.71,0,0,0,1.22.29,1.7,1.7,0,0,0,.87-.19.6.6,0,0,0,.29-.51.65.65,0,0,0-.23-.49,2.78,2.78,0,0,0-.78-.39,4.8,4.8,0,0,1-.81-.36,1.14,1.14,0,0,1-.35-.34.83.83,0,0,1-.12-.46.79.79,0,0,1,.36-.68,1.77,1.77,0,0,1,1-.25,3.14,3.14,0,0,1,1.18.23l-.13.32a2.7,2.7,0,0,0-1-.23,1.58,1.58,0,0,0-.75.15.49.49,0,0,0-.27.43.62.62,0,0,0,.21.49,3,3,0,0,0,.84.4,4.09,4.09,0,0,1,.76.34,1.14,1.14,0,0,1,.35.34A.84.84,0,0,1,83.73,16.54Z" style="fill:#1d1d1b"/><g style="clip-path:url(#a)"><rect width="85.59" height="20.34" style="fill:url(#b)"/></g></svg>